<?xml version="1.0" encoding="utf-8"?>
<!-- Generator: Adobe Illustrator 17.0.0, SVG Export Plug-In . SVG Version: 6.00 Build 0)  -->
<!DOCTYPE svg PUBLIC "-//W3C//DTD SVG 1.1//EN" "http://www.w3.org/Graphics/SVG/1.1/DTD/svg11.dtd">
<svg version="1.1" xmlns="http://www.w3.org/2000/svg" xmlns:xlink="http://www.w3.org/1999/xlink" x="0px" y="0px" width="352px"
	 height="102px" viewBox="-47.5 457.75 352 102" enable-background="new -47.5 457.75 352 102" xml:space="preserve">
<g id="Layer_3_2_">
	<g opacity="0.3">
		<g>
			<polygon fill="#9ED9D5" points="-23.5,471.75 -23.5,473.75 -25.5,473.75 -25.5,475.75 -27.5,475.75 -27.5,477.75 -29.5,477.75 
				-29.5,479.75 -31.5,479.75 -31.5,481.75 -33.5,481.75 -33.5,483.75 -35.5,483.75 -35.5,485.75 -37.5,485.75 -37.5,529.75 
				-23.5,529.75 -5.5,529.75 -5.5,471.75 			"/>
			<rect x="-43.5" y="483.75" fill="#9ED9D5" width="12" height="34"/>
			<rect x="-5.5" y="493.75" fill="#9ED9D5" width="18" height="38"/>
			<rect x="42.5" y="479.75" fill="#9ED9D5" width="18" height="38"/>
			<polygon fill="#9ED9D5" points="210.5,471.75 210.5,473.75 208.5,473.75 208.5,475.75 206.5,475.75 206.5,477.75 204.5,477.75 
				204.5,479.75 202.5,479.75 202.5,481.75 200.5,481.75 200.5,483.75 198.5,483.75 198.5,485.75 196.5,485.75 196.5,529.75 
				210.5,529.75 228.5,529.75 228.5,471.75 			"/>
			<rect x="228.5" y="493.75" fill="#9ED9D5" width="18" height="38"/>
			<rect x="276.5" y="479.75" fill="#9ED9D5" width="18" height="38"/>
			<polygon fill="#9ED9D5" points="93.5,471.75 93.5,473.75 91.5,473.75 91.5,475.75 89.5,475.75 89.5,477.75 87.5,477.75 
				87.5,479.75 85.5,479.75 85.5,481.75 83.5,481.75 83.5,483.75 81.5,483.75 81.5,485.75 79.5,485.75 79.5,529.75 93.5,529.75 
				111.5,529.75 111.5,471.75 			"/>
			<rect x="111.5" y="493.75" fill="#9ED9D5" width="18" height="38"/>
			<rect x="159.5" y="479.75" fill="#9ED9D5" width="18" height="38"/>
			<rect x="64.5" y="491.75" fill="#9ED9D5" width="18" height="38"/>
			<rect x="184.5" y="493.75" fill="#9ED9D5" width="12" height="34"/>
			<rect x="288.5" y="489.75" fill="#9ED9D5" width="12" height="34"/>
		</g>
	</g>
	<polygon fill="#9ED9D5" points="46.5,483.75 46.5,477.75 36.5,477.75 36.5,521.75 46.5,521.75 56.5,521.75 56.5,483.75 	"/>
	<rect x="-31.5" y="485.75" fill="#9ED9D5" width="32" height="54"/>
	<rect x="-21.5" y="475.75" fill="#9ED9D5" width="22" height="10"/>
	<rect x="-19.5" y="477.75" fill="#DFF1C9" width="18" height="8"/>
	<rect x="-29.5" y="487.75" fill="#DFF1C9" width="28" height="50"/>
	<rect x="-13.5" y="497.75" fill="#9ED9D5" width="20" height="26"/>
	<rect x="-11.5" y="499.75" fill="#DFF1C9" width="16" height="22"/>
	<polygon fill="#9ED9D5" points="20.5,461.75 20.5,469.75 4.5,469.75 4.5,521.75 36.5,521.75 36.5,469.75 36.5,461.75 	"/>
	<polygon fill="#DFF1C9" points="22.5,463.75 22.5,471.75 6.5,471.75 6.5,519.75 34.5,519.75 34.5,471.75 34.5,463.75 	"/>
	<polygon fill="#DFF1C9" points="44.5,485.75 44.5,479.75 36.5,479.75 36.5,519.75 44.5,519.75 54.5,519.75 54.5,485.75 	"/>
	<rect x="36.5" y="483.75" fill="#9ED9D5" width="8" height="2"/>
	<rect x="-27.5" y="491.75" fill="#9ED9D5" width="2" height="6"/>
	<rect x="-21.5" y="491.75" fill="#9ED9D5" width="2" height="6"/>
	<rect x="-15.5" y="491.75" fill="#9ED9D5" width="2" height="6"/>
	<rect x="-3.5" y="477.75" fill="#BEE6C1" width="2" height="8"/>
	<rect x="-7.5" y="487.75" fill="#BEE6C1" width="6" height="10"/>
	<rect x="-27.5" y="501.75" fill="#9ED9D5" width="2" height="6"/>
	<rect x="-21.5" y="501.75" fill="#9ED9D5" width="2" height="6"/>
	<rect x="-15.5" y="501.75" fill="#9ED9D5" width="2" height="6"/>
	<rect x="-27.5" y="511.75" fill="#9ED9D5" width="2" height="6"/>
	<rect x="-21.5" y="511.75" fill="#9ED9D5" width="2" height="6"/>
	<rect x="-15.5" y="511.75" fill="#9ED9D5" width="2" height="6"/>
	<rect x="2.5" y="499.75" fill="#BEE6C1" width="2" height="22"/>
	<rect x="-9.5" y="479.75" fill="#9ED9D5" width="2" height="6"/>
	<rect x="-15.5" y="479.75" fill="#9ED9D5" width="2" height="6"/>
	<rect x="8.5" y="463.75" fill="#BEE6C1" width="12" height="6"/>
	<rect x="-25.5" y="491.75" opacity="0.5" fill="#BEE6C1" width="2" height="6"/>
	<rect x="-19.5" y="491.75" opacity="0.5" fill="#BEE6C1" width="2" height="6"/>
	<rect x="-25.5" y="501.75" opacity="0.5" fill="#BEE6C1" width="2" height="6"/>
	<rect x="-19.5" y="501.75" opacity="0.5" fill="#BEE6C1" width="2" height="6"/>
	<rect x="-25.5" y="511.75" opacity="0.5" fill="#BEE6C1" width="2" height="6"/>
	<rect x="-19.5" y="511.75" opacity="0.5" fill="#BEE6C1" width="2" height="6"/>
	<rect x="-13.5" y="479.75" opacity="0.5" fill="#BEE6C1" width="2" height="6"/>
	<rect x="-13.5" y="491.75" opacity="0.5" fill="#BEE6C1" width="2" height="6"/>
	<rect x="-7.5" y="479.75" opacity="0.5" fill="#BEE6C1" width="2" height="6"/>
	<rect x="-9.5" y="501.75" fill="#9ED9D5" width="2" height="6"/>
	<rect x="-3.5" y="501.75" fill="#9ED9D5" width="2" height="6"/>
	<rect x="-7.5" y="501.75" opacity="0.5" fill="#BEE6C1" width="2" height="6"/>
	<rect x="-1.5" y="501.75" opacity="0.5" fill="#BEE6C1" width="2" height="6"/>
	<rect x="-9.5" y="511.75" fill="#9ED9D5" width="2" height="6"/>
	<rect x="-3.5" y="511.75" fill="#9ED9D5" width="2" height="6"/>
	<rect x="-7.5" y="511.75" opacity="0.5" fill="#BEE6C1" width="2" height="6"/>
	<rect x="-1.5" y="511.75" opacity="0.5" fill="#BEE6C1" width="2" height="6"/>
	<rect x="8.5" y="473.75" fill="#9ED9D5" width="2" height="6"/>
	<rect x="14.5" y="473.75" fill="#9ED9D5" width="2" height="6"/>
	<rect x="20.5" y="473.75" fill="#9ED9D5" width="2" height="6"/>
	<rect x="26.5" y="473.75" fill="#9ED9D5" width="2" height="6"/>
	<rect x="10.5" y="473.75" opacity="0.5" fill="#BEE6C1" width="2" height="6"/>
	<rect x="16.5" y="473.75" opacity="0.5" fill="#BEE6C1" width="2" height="6"/>
	<rect x="22.5" y="473.75" opacity="0.5" fill="#BEE6C1" width="2" height="6"/>
	<rect x="28.5" y="473.75" opacity="0.5" fill="#BEE6C1" width="2" height="6"/>
	<rect x="8.5" y="483.75" fill="#9ED9D5" width="2" height="6"/>
	<rect x="14.5" y="483.75" fill="#9ED9D5" width="2" height="6"/>
	<rect x="20.5" y="461.75" fill="#9ED9D5" width="2" height="6"/>
	<rect x="26.5" y="483.75" fill="#9ED9D5" width="2" height="6"/>
	<rect x="10.5" y="483.75" opacity="0.5" fill="#BEE6C1" width="2" height="6"/>
	<rect x="16.5" y="483.75" opacity="0.5" fill="#BEE6C1" width="2" height="6"/>
	<rect x="22.5" y="483.75" opacity="0.5" fill="#BEE6C1" width="2" height="6"/>
	<rect x="28.5" y="483.75" opacity="0.5" fill="#BEE6C1" width="2" height="6"/>
	<rect x="8.5" y="497.75" fill="#9ED9D5" width="2" height="6"/>
	<rect x="14.5" y="497.75" fill="#9ED9D5" width="2" height="6"/>
	<rect x="20.5" y="497.75" fill="#9ED9D5" width="2" height="6"/>
	<rect x="26.5" y="497.75" fill="#9ED9D5" width="2" height="6"/>
	<rect x="10.5" y="497.75" opacity="0.5" fill="#BEE6C1" width="2" height="6"/>
	<rect x="16.5" y="497.75" opacity="0.5" fill="#BEE6C1" width="2" height="6"/>
	<rect x="22.5" y="497.75" opacity="0.5" fill="#BEE6C1" width="2" height="6"/>
	<rect x="28.5" y="497.75" opacity="0.5" fill="#BEE6C1" width="2" height="6"/>
	<rect x="8.5" y="507.75" fill="#9ED9D5" width="2" height="6"/>
	<rect x="14.5" y="507.75" fill="#9ED9D5" width="2" height="6"/>
	<rect x="20.5" y="507.75" fill="#9ED9D5" width="2" height="6"/>
	<rect x="26.5" y="507.75" fill="#9ED9D5" width="2" height="6"/>
	<rect x="10.5" y="507.75" opacity="0.5" fill="#BEE6C1" width="2" height="6"/>
	<rect x="16.5" y="507.75" opacity="0.5" fill="#BEE6C1" width="2" height="6"/>
	<rect x="22.5" y="507.75" opacity="0.5" fill="#BEE6C1" width="2" height="6"/>
	<rect x="28.5" y="507.75" opacity="0.5" fill="#BEE6C1" width="2" height="6"/>
	<rect x="32.5" y="463.75" opacity="0.5" fill="#BEE6C1" width="2" height="56"/>
	<rect x="26.5" y="467.75" fill="#9ED9D5" width="2" height="4"/>
	<rect x="28.5" y="467.75" opacity="0.5" fill="#BEE6C1" width="2" height="4"/>
	<rect x="36.5" y="479.75" fill="#BEE6C1" width="2" height="4"/>
	<rect x="36.5" y="485.75" fill="#BEE6C1" width="4" height="34"/>
	<rect x="42.5" y="489.75" fill="#9ED9D5" width="2" height="6"/>
	<rect x="48.5" y="489.75" fill="#9ED9D5" width="2" height="6"/>
	<rect x="42.5" y="499.75" fill="#9ED9D5" width="2" height="6"/>
	<rect x="48.5" y="499.75" fill="#9ED9D5" width="2" height="6"/>
	<rect x="42.5" y="509.75" fill="#9ED9D5" width="2" height="6"/>
	<rect x="48.5" y="509.75" fill="#9ED9D5" width="2" height="6"/>
	<rect x="44.5" y="489.75" opacity="0.5" fill="#BEE6C1" width="2" height="6"/>
	<rect x="50.5" y="489.75" opacity="0.5" fill="#BEE6C1" width="2" height="6"/>
	<rect x="44.5" y="499.75" opacity="0.5" fill="#BEE6C1" width="2" height="6"/>
	<rect x="50.5" y="499.75" opacity="0.5" fill="#BEE6C1" width="2" height="6"/>
	<rect x="44.5" y="509.75" opacity="0.5" fill="#BEE6C1" width="2" height="6"/>
	<rect x="50.5" y="509.75" opacity="0.5" fill="#BEE6C1" width="2" height="6"/>
	<rect x="-13.5" y="519.75" fill="#9ED9D5" width="70" height="20"/>
	<rect x="-11.5" y="519.75" fill="#DFF1C9" width="14" height="18"/>
	<rect x="6.5" y="519.75" fill="#DFF1C9" width="26" height="18"/>
	<rect x="40.5" y="519.75" fill="#DFF1C9" width="14" height="18"/>
	<rect x="32.5" y="519.75" fill="#BEE6C1" width="2" height="18"/>
	<rect x="36.5" y="519.75" fill="#BEE6C1" width="4" height="18"/>
	<rect x="2.5" y="519.75" fill="#BEE6C1" width="2" height="18"/>
	<rect x="20.5" y="483.75" fill="#9ED9D5" width="2" height="6"/>
	<polygon fill="#9ED9D5" points="280.5,483.75 280.5,477.75 270.5,477.75 270.5,521.75 280.5,521.75 290.5,521.75 290.5,483.75 	"/>
	<rect x="202.5" y="485.75" fill="#9ED9D5" width="32" height="54"/>
	<rect x="212.5" y="475.75" fill="#9ED9D5" width="22" height="10"/>
	<rect x="214.5" y="477.75" fill="#DFF1C9" width="18" height="8"/>
	<rect x="204.5" y="487.75" fill="#DFF1C9" width="28" height="50"/>
	<rect x="220.5" y="497.75" fill="#9ED9D5" width="20" height="26"/>
	<rect x="222.5" y="499.75" fill="#DFF1C9" width="16" height="22"/>
	<polygon fill="#9ED9D5" points="254.5,461.75 254.5,469.75 238.5,469.75 238.5,521.75 270.5,521.75 270.5,469.75 270.5,461.75 	"/>
	<polygon fill="#DFF1C9" points="256.5,463.75 256.5,471.75 240.5,471.75 240.5,519.75 268.5,519.75 268.5,471.75 268.5,463.75 	"/>
	<polygon fill="#DFF1C9" points="278.5,485.75 278.5,479.75 270.5,479.75 270.5,519.75 278.5,519.75 288.5,519.75 288.5,485.75 	"/>
	<rect x="270.5" y="483.75" fill="#9ED9D5" width="8" height="2"/>
	<rect x="206.5" y="491.75" fill="#9ED9D5" width="2" height="6"/>
	<rect x="212.5" y="491.75" fill="#9ED9D5" width="2" height="6"/>
	<rect x="218.5" y="491.75" fill="#9ED9D5" width="2" height="6"/>
	<rect x="230.5" y="477.75" fill="#BEE6C1" width="2" height="8"/>
	<rect x="226.5" y="487.75" fill="#BEE6C1" width="6" height="10"/>
	<rect x="206.5" y="501.75" fill="#9ED9D5" width="2" height="6"/>
	<rect x="212.5" y="501.75" fill="#9ED9D5" width="2" height="6"/>
	<rect x="218.5" y="501.75" fill="#9ED9D5" width="2" height="6"/>
	<rect x="206.5" y="511.75" fill="#9ED9D5" width="2" height="6"/>
	<rect x="212.5" y="511.75" fill="#9ED9D5" width="2" height="6"/>
	<rect x="218.5" y="511.75" fill="#9ED9D5" width="2" height="6"/>
	<rect x="236.5" y="499.75" fill="#BEE6C1" width="2" height="22"/>
	<rect x="224.5" y="479.75" fill="#9ED9D5" width="2" height="6"/>
	<rect x="218.5" y="479.75" fill="#9ED9D5" width="2" height="6"/>
	<rect x="242.5" y="463.75" fill="#BEE6C1" width="12" height="6"/>
	<rect x="208.5" y="491.75" opacity="0.5" fill="#BEE6C1" width="2" height="6"/>
	<rect x="214.5" y="491.75" opacity="0.5" fill="#BEE6C1" width="2" height="6"/>
	<rect x="208.5" y="501.75" opacity="0.5" fill="#BEE6C1" width="2" height="6"/>
	<rect x="214.5" y="501.75" opacity="0.5" fill="#BEE6C1" width="2" height="6"/>
	<rect x="208.5" y="511.75" opacity="0.5" fill="#BEE6C1" width="2" height="6"/>
	<rect x="214.5" y="511.75" opacity="0.5" fill="#BEE6C1" width="2" height="6"/>
	<rect x="220.5" y="479.75" opacity="0.5" fill="#BEE6C1" width="2" height="6"/>
	<rect x="220.5" y="491.75" opacity="0.5" fill="#BEE6C1" width="2" height="6"/>
	<rect x="226.5" y="479.75" opacity="0.5" fill="#BEE6C1" width="2" height="6"/>
	<rect x="224.5" y="501.75" fill="#9ED9D5" width="2" height="6"/>
	<rect x="230.5" y="501.75" fill="#9ED9D5" width="2" height="6"/>
	<rect x="226.5" y="501.75" opacity="0.5" fill="#BEE6C1" width="2" height="6"/>
	<rect x="232.5" y="501.75" opacity="0.5" fill="#BEE6C1" width="2" height="6"/>
	<rect x="224.5" y="511.75" fill="#9ED9D5" width="2" height="6"/>
	<rect x="230.5" y="511.75" fill="#9ED9D5" width="2" height="6"/>
	<rect x="226.5" y="511.75" opacity="0.5" fill="#BEE6C1" width="2" height="6"/>
	<rect x="232.5" y="511.75" opacity="0.5" fill="#BEE6C1" width="2" height="6"/>
	<rect x="242.5" y="473.75" fill="#9ED9D5" width="2" height="6"/>
	<rect x="248.5" y="473.75" fill="#9ED9D5" width="2" height="6"/>
	<rect x="254.5" y="473.75" fill="#9ED9D5" width="2" height="6"/>
	<rect x="260.5" y="473.75" fill="#9ED9D5" width="2" height="6"/>
	<rect x="244.5" y="473.75" opacity="0.5" fill="#BEE6C1" width="2" height="6"/>
	<rect x="250.5" y="473.75" opacity="0.5" fill="#BEE6C1" width="2" height="6"/>
	<rect x="256.5" y="473.75" opacity="0.5" fill="#BEE6C1" width="2" height="6"/>
	<rect x="262.5" y="473.75" opacity="0.5" fill="#BEE6C1" width="2" height="6"/>
	<rect x="242.5" y="483.75" fill="#9ED9D5" width="2" height="6"/>
	<rect x="248.5" y="483.75" fill="#9ED9D5" width="2" height="6"/>
	<rect x="254.5" y="461.75" fill="#9ED9D5" width="2" height="6"/>
	<rect x="260.5" y="483.75" fill="#9ED9D5" width="2" height="6"/>
	<rect x="244.5" y="483.75" opacity="0.5" fill="#BEE6C1" width="2" height="6"/>
	<rect x="250.5" y="483.75" opacity="0.5" fill="#BEE6C1" width="2" height="6"/>
	<rect x="256.5" y="483.75" opacity="0.5" fill="#BEE6C1" width="2" height="6"/>
	<rect x="262.5" y="483.75" opacity="0.5" fill="#BEE6C1" width="2" height="6"/>
	<rect x="242.5" y="497.75" fill="#9ED9D5" width="2" height="6"/>
	<rect x="248.5" y="497.75" fill="#9ED9D5" width="2" height="6"/>
	<rect x="254.5" y="497.75" fill="#9ED9D5" width="2" height="6"/>
	<rect x="260.5" y="497.75" fill="#9ED9D5" width="2" height="6"/>
	<rect x="244.5" y="497.75" opacity="0.5" fill="#BEE6C1" width="2" height="6"/>
	<rect x="250.5" y="497.75" opacity="0.5" fill="#BEE6C1" width="2" height="6"/>
	<rect x="256.5" y="497.75" opacity="0.5" fill="#BEE6C1" width="2" height="6"/>
	<rect x="262.5" y="497.75" opacity="0.5" fill="#BEE6C1" width="2" height="6"/>
	<rect x="242.5" y="507.75" fill="#9ED9D5" width="2" height="6"/>
	<rect x="248.5" y="507.75" fill="#9ED9D5" width="2" height="6"/>
	<rect x="254.5" y="507.75" fill="#9ED9D5" width="2" height="6"/>
	<rect x="260.5" y="507.75" fill="#9ED9D5" width="2" height="6"/>
	<rect x="244.5" y="507.75" opacity="0.5" fill="#BEE6C1" width="2" height="6"/>
	<rect x="250.5" y="507.75" opacity="0.5" fill="#BEE6C1" width="2" height="6"/>
	<rect x="256.5" y="507.75" opacity="0.5" fill="#BEE6C1" width="2" height="6"/>
	<rect x="262.5" y="507.75" opacity="0.5" fill="#BEE6C1" width="2" height="6"/>
	<rect x="266.5" y="463.75" opacity="0.5" fill="#BEE6C1" width="2" height="56"/>
	<rect x="260.5" y="467.75" fill="#9ED9D5" width="2" height="4"/>
	<rect x="262.5" y="467.75" opacity="0.5" fill="#BEE6C1" width="2" height="4"/>
	<rect x="270.5" y="479.75" fill="#BEE6C1" width="2" height="4"/>
	<rect x="270.5" y="485.75" fill="#BEE6C1" width="4" height="34"/>
	<rect x="276.5" y="489.75" fill="#9ED9D5" width="2" height="6"/>
	<rect x="282.5" y="489.75" fill="#9ED9D5" width="2" height="6"/>
	<rect x="276.5" y="499.75" fill="#9ED9D5" width="2" height="6"/>
	<rect x="282.5" y="499.75" fill="#9ED9D5" width="2" height="6"/>
	<rect x="276.5" y="509.75" fill="#9ED9D5" width="2" height="6"/>
	<rect x="282.5" y="509.75" fill="#9ED9D5" width="2" height="6"/>
	<rect x="278.5" y="489.75" opacity="0.5" fill="#BEE6C1" width="2" height="6"/>
	<rect x="284.5" y="489.75" opacity="0.5" fill="#BEE6C1" width="2" height="6"/>
	<rect x="278.5" y="499.75" opacity="0.5" fill="#BEE6C1" width="2" height="6"/>
	<rect x="284.5" y="499.75" opacity="0.5" fill="#BEE6C1" width="2" height="6"/>
	<rect x="278.5" y="509.75" opacity="0.5" fill="#BEE6C1" width="2" height="6"/>
	<rect x="284.5" y="509.75" opacity="0.5" fill="#BEE6C1" width="2" height="6"/>
	<rect x="220.5" y="519.75" fill="#9ED9D5" width="70" height="20"/>
	<rect x="222.5" y="519.75" fill="#DFF1C9" width="14" height="18"/>
	<rect x="240.5" y="519.75" fill="#DFF1C9" width="26" height="18"/>
	<rect x="274.5" y="519.75" fill="#DFF1C9" width="14" height="18"/>
	<rect x="266.5" y="519.75" fill="#BEE6C1" width="2" height="18"/>
	<rect x="270.5" y="519.75" fill="#BEE6C1" width="4" height="18"/>
	<rect x="236.5" y="519.75" fill="#BEE6C1" width="2" height="18"/>
	<rect x="254.5" y="483.75" fill="#9ED9D5" width="2" height="6"/>
	<polygon fill="#9ED9D5" points="163.5,483.75 163.5,477.75 153.5,477.75 153.5,521.75 163.5,521.75 173.5,521.75 173.5,483.75 	"/>
	<rect x="85.5" y="485.75" fill="#9ED9D5" width="32" height="54"/>
	<rect x="95.5" y="475.75" fill="#9ED9D5" width="22" height="10"/>
	<rect x="97.5" y="477.75" fill="#DFF1C9" width="18" height="8"/>
	<rect x="87.5" y="487.75" fill="#DFF1C9" width="28" height="50"/>
	<rect x="103.5" y="497.75" fill="#9ED9D5" width="20" height="26"/>
	<rect x="105.5" y="499.75" fill="#DFF1C9" width="16" height="22"/>
	<polygon fill="#9ED9D5" points="137.5,461.75 137.5,469.75 121.5,469.75 121.5,521.75 153.5,521.75 153.5,469.75 153.5,461.75 	"/>
	<polygon fill="#DFF1C9" points="139.5,463.75 139.5,471.75 123.5,471.75 123.5,519.75 151.5,519.75 151.5,471.75 151.5,463.75 	"/>
	<polygon fill="#DFF1C9" points="161.5,485.75 161.5,479.75 153.5,479.75 153.5,519.75 161.5,519.75 171.5,519.75 171.5,485.75 	"/>
	<rect x="153.5" y="483.75" fill="#9ED9D5" width="8" height="2"/>
	<rect x="89.5" y="491.75" fill="#9ED9D5" width="2" height="6"/>
	<rect x="95.5" y="491.75" fill="#9ED9D5" width="2" height="6"/>
	<rect x="101.5" y="491.75" fill="#9ED9D5" width="2" height="6"/>
	<rect x="113.5" y="477.75" fill="#BEE6C1" width="2" height="8"/>
	<rect x="109.5" y="487.75" fill="#BEE6C1" width="6" height="10"/>
	<rect x="89.5" y="501.75" fill="#9ED9D5" width="2" height="6"/>
	<rect x="95.5" y="501.75" fill="#9ED9D5" width="2" height="6"/>
	<rect x="101.5" y="501.75" fill="#9ED9D5" width="2" height="6"/>
	<rect x="89.5" y="511.75" fill="#9ED9D5" width="2" height="6"/>
	<rect x="95.5" y="511.75" fill="#9ED9D5" width="2" height="6"/>
	<rect x="101.5" y="511.75" fill="#9ED9D5" width="2" height="6"/>
	<rect x="119.5" y="499.75" fill="#BEE6C1" width="2" height="22"/>
	<rect x="107.5" y="479.75" fill="#9ED9D5" width="2" height="6"/>
	<rect x="101.5" y="479.75" fill="#9ED9D5" width="2" height="6"/>
	<rect x="125.5" y="463.75" fill="#BEE6C1" width="12" height="6"/>
	<rect x="91.5" y="491.75" opacity="0.5" fill="#BEE6C1" width="2" height="6"/>
	<rect x="97.5" y="491.75" opacity="0.5" fill="#BEE6C1" width="2" height="6"/>
	<rect x="91.5" y="501.75" opacity="0.5" fill="#BEE6C1" width="2" height="6"/>
	<rect x="97.5" y="501.75" opacity="0.5" fill="#BEE6C1" width="2" height="6"/>
	<rect x="91.5" y="511.75" opacity="0.5" fill="#BEE6C1" width="2" height="6"/>
	<rect x="97.5" y="511.75" opacity="0.5" fill="#BEE6C1" width="2" height="6"/>
	<rect x="103.5" y="479.75" opacity="0.5" fill="#BEE6C1" width="2" height="6"/>
	<rect x="103.5" y="491.75" opacity="0.5" fill="#BEE6C1" width="2" height="6"/>
	<rect x="109.5" y="479.75" opacity="0.5" fill="#BEE6C1" width="2" height="6"/>
	<rect x="107.5" y="501.75" fill="#9ED9D5" width="2" height="6"/>
	<rect x="113.5" y="501.75" fill="#9ED9D5" width="2" height="6"/>
	<rect x="109.5" y="501.75" opacity="0.5" fill="#BEE6C1" width="2" height="6"/>
	<rect x="115.5" y="501.75" opacity="0.5" fill="#BEE6C1" width="2" height="6"/>
	<rect x="107.5" y="511.75" fill="#9ED9D5" width="2" height="6"/>
	<rect x="113.5" y="511.75" fill="#9ED9D5" width="2" height="6"/>
	<rect x="109.5" y="511.75" opacity="0.5" fill="#BEE6C1" width="2" height="6"/>
	<rect x="115.5" y="511.75" opacity="0.5" fill="#BEE6C1" width="2" height="6"/>
	<rect x="125.5" y="473.75" fill="#9ED9D5" width="2" height="6"/>
	<rect x="131.5" y="473.75" fill="#9ED9D5" width="2" height="6"/>
	<rect x="137.5" y="473.75" fill="#9ED9D5" width="2" height="6"/>
	<rect x="143.5" y="473.75" fill="#9ED9D5" width="2" height="6"/>
	<rect x="127.5" y="473.75" opacity="0.5" fill="#BEE6C1" width="2" height="6"/>
	<rect x="133.5" y="473.75" opacity="0.5" fill="#BEE6C1" width="2" height="6"/>
	<rect x="139.5" y="473.75" opacity="0.5" fill="#BEE6C1" width="2" height="6"/>
	<rect x="145.5" y="473.75" opacity="0.5" fill="#BEE6C1" width="2" height="6"/>
	<rect x="125.5" y="483.75" fill="#9ED9D5" width="2" height="6"/>
	<rect x="131.5" y="483.75" fill="#9ED9D5" width="2" height="6"/>
	<rect x="137.5" y="461.75" fill="#9ED9D5" width="2" height="6"/>
	<rect x="143.5" y="483.75" fill="#9ED9D5" width="2" height="6"/>
	<rect x="127.5" y="483.75" opacity="0.5" fill="#BEE6C1" width="2" height="6"/>
	<rect x="133.5" y="483.75" opacity="0.5" fill="#BEE6C1" width="2" height="6"/>
	<rect x="139.5" y="483.75" opacity="0.5" fill="#BEE6C1" width="2" height="6"/>
	<rect x="145.5" y="483.75" opacity="0.5" fill="#BEE6C1" width="2" height="6"/>
	<rect x="125.5" y="497.75" fill="#9ED9D5" width="2" height="6"/>
	<rect x="131.5" y="497.75" fill="#9ED9D5" width="2" height="6"/>
	<rect x="137.5" y="497.75" fill="#9ED9D5" width="2" height="6"/>
	<rect x="143.5" y="497.75" fill="#9ED9D5" width="2" height="6"/>
	<rect x="127.5" y="497.75" opacity="0.5" fill="#BEE6C1" width="2" height="6"/>
	<rect x="133.5" y="497.75" opacity="0.5" fill="#BEE6C1" width="2" height="6"/>
	<rect x="139.5" y="497.75" opacity="0.5" fill="#BEE6C1" width="2" height="6"/>
	<rect x="145.5" y="497.75" opacity="0.5" fill="#BEE6C1" width="2" height="6"/>
	<rect x="125.5" y="507.75" fill="#9ED9D5" width="2" height="6"/>
	<rect x="131.5" y="507.75" fill="#9ED9D5" width="2" height="6"/>
	<rect x="137.5" y="507.75" fill="#9ED9D5" width="2" height="6"/>
	<rect x="143.5" y="507.75" fill="#9ED9D5" width="2" height="6"/>
	<rect x="127.5" y="507.75" opacity="0.5" fill="#BEE6C1" width="2" height="6"/>
	<rect x="133.5" y="507.75" opacity="0.5" fill="#BEE6C1" width="2" height="6"/>
	<rect x="139.5" y="507.75" opacity="0.5" fill="#BEE6C1" width="2" height="6"/>
	<rect x="145.5" y="507.75" opacity="0.5" fill="#BEE6C1" width="2" height="6"/>
	<rect x="149.5" y="463.75" opacity="0.5" fill="#BEE6C1" width="2" height="56"/>
	<rect x="143.5" y="467.75" fill="#9ED9D5" width="2" height="4"/>
	<rect x="145.5" y="467.75" opacity="0.5" fill="#BEE6C1" width="2" height="4"/>
	<rect x="153.5" y="479.75" fill="#BEE6C1" width="2" height="4"/>
	<rect x="153.5" y="485.75" fill="#BEE6C1" width="4" height="34"/>
	<rect x="159.5" y="489.75" fill="#9ED9D5" width="2" height="6"/>
	<rect x="165.5" y="489.75" fill="#9ED9D5" width="2" height="6"/>
	<rect x="159.5" y="499.75" fill="#9ED9D5" width="2" height="6"/>
	<rect x="165.5" y="499.75" fill="#9ED9D5" width="2" height="6"/>
	<rect x="159.5" y="509.75" fill="#9ED9D5" width="2" height="6"/>
	<rect x="165.5" y="509.75" fill="#9ED9D5" width="2" height="6"/>
	<rect x="161.5" y="489.75" opacity="0.5" fill="#BEE6C1" width="2" height="6"/>
	<rect x="167.5" y="489.75" opacity="0.5" fill="#BEE6C1" width="2" height="6"/>
	<rect x="161.5" y="499.75" opacity="0.5" fill="#BEE6C1" width="2" height="6"/>
	<rect x="167.5" y="499.75" opacity="0.5" fill="#BEE6C1" width="2" height="6"/>
	<rect x="161.5" y="509.75" opacity="0.5" fill="#BEE6C1" width="2" height="6"/>
	<rect x="167.5" y="509.75" opacity="0.5" fill="#BEE6C1" width="2" height="6"/>
	<rect x="103.5" y="519.75" fill="#9ED9D5" width="70" height="20"/>
	<rect x="105.5" y="519.75" fill="#DFF1C9" width="14" height="18"/>
	<rect x="123.5" y="519.75" fill="#DFF1C9" width="26" height="18"/>
	<rect x="157.5" y="519.75" fill="#DFF1C9" width="14" height="18"/>
	<rect x="149.5" y="519.75" fill="#BEE6C1" width="2" height="18"/>
	<rect x="153.5" y="519.75" fill="#BEE6C1" width="4" height="18"/>
	<rect x="119.5" y="519.75" fill="#BEE6C1" width="2" height="18"/>
	<rect x="137.5" y="483.75" fill="#9ED9D5" width="2" height="6"/>
</g>
<g id="Layer_1">
	<g>
		<g id="Layer_1_1_">
			<polygon fill="#8FCC88" points="276.5,525.75 276.5,519.75 274.5,519.75 274.5,515.75 272.5,515.75 272.5,513.75 270.5,513.75 
				270.5,511.75 268.5,511.75 268.5,509.75 266.5,509.75 266.5,507.75 264.5,507.75 264.5,505.75 260.5,505.75 260.5,503.75 
				254.5,503.75 254.5,501.75 238.5,501.75 238.5,503.75 232.5,503.75 232.5,505.75 228.5,505.75 228.5,507.75 226.5,507.75 
				226.5,509.75 224.5,509.75 224.5,511.75 222.5,511.75 222.5,513.75 220.5,513.75 220.5,515.75 218.5,515.75 214.5,515.75 
				214.5,513.75 208.5,513.75 208.5,511.75 192.5,511.75 192.5,513.75 186.5,513.75 186.5,515.75 182.5,515.75 182.5,517.75 
				180.5,517.75 180.5,519.75 178.5,519.75 178.5,521.75 176.5,521.75 176.5,523.75 174.5,523.75 174.5,525.75 172.5,525.75 
				172.5,529.75 170.5,529.75 170.5,535.75 168.5,535.75 168.5,543.75 168.5,551.75 170.5,551.75 170.5,557.75 172.5,557.75 
				172.5,559.75 264.5,559.75 266.5,559.75 266.5,557.75 268.5,557.75 268.5,555.75 270.5,555.75 270.5,553.75 272.5,553.75 
				272.5,551.75 274.5,551.75 274.5,547.75 276.5,547.75 276.5,541.75 278.5,541.75 278.5,533.75 278.5,525.75 			"/>
			<polygon fill="#8FCC88" points="-7.5,553.75 -5.5,553.75 -5.5,557.75 -3.5,557.75 -3.5,559.75 -1.5,559.75 46.5,559.75 
				48.5,559.75 48.5,557.75 50.5,557.75 50.5,553.75 52.5,553.75 52.5,547.75 54.5,547.75 54.5,539.75 54.5,531.75 52.5,531.75 
				52.5,525.75 50.5,525.75 50.5,521.75 48.5,521.75 48.5,519.75 46.5,519.75 46.5,517.75 44.5,517.75 44.5,515.75 42.5,515.75 
				42.5,513.75 40.5,513.75 40.5,511.75 36.5,511.75 36.5,509.75 30.5,509.75 30.5,507.75 14.5,507.75 14.5,509.75 8.5,509.75 
				8.5,511.75 4.5,511.75 4.5,513.75 2.5,513.75 2.5,515.75 0.5,515.75 0.5,517.75 -1.5,517.75 -1.5,519.75 -3.5,519.75 
				-3.5,521.75 -5.5,521.75 -5.5,525.75 -7.5,525.75 -7.5,531.75 -9.5,531.75 -9.5,539.75 -9.5,547.75 -7.5,547.75 			"/>
			<rect x="50.5" y="525.75" fill="#83AB93" width="2" height="4"/>
			<rect x="48.5" y="521.75" fill="#83AB93" width="2" height="4"/>
			<rect x="46.5" y="519.75" fill="#83AB93" width="2" height="2"/>
			<rect x="44.5" y="517.75" fill="#83AB93" width="2" height="2"/>
			<rect x="42.5" y="515.75" fill="#83AB93" width="2" height="2"/>
			<rect x="40.5" y="513.75" fill="#83AB93" width="2" height="2"/>
			<rect x="36.5" y="511.75" fill="#83AB93" width="4" height="2"/>
			<rect x="30.5" y="509.75" fill="#83AB93" width="6" height="2"/>
			<rect x="14.5" y="507.75" fill="#83AB93" width="16" height="2"/>
			<rect x="8.5" y="509.75" fill="#83AB93" width="6" height="2"/>
			<rect x="4.5" y="511.75" fill="#83AB93" width="4" height="2"/>
			<rect x="2.5" y="513.75" fill="#83AB93" width="2" height="2"/>
			<rect x="0.5" y="515.75" fill="#83AB93" width="2" height="2"/>
			<rect x="-1.5" y="517.75" fill="#83AB93" width="2" height="2"/>
			<rect x="-3.5" y="519.75" fill="#83AB93" width="2" height="2"/>
			<polygon fill="#8FCC88" points="280.5,549.75 284.5,549.75 284.5,547.75 288.5,547.75 288.5,545.75 290.5,545.75 290.5,541.75 
				292.5,541.75 292.5,537.75 294.5,537.75 294.5,525.75 292.5,525.75 292.5,521.75 290.5,521.75 290.5,517.75 288.5,517.75 
				288.5,515.75 284.5,515.75 284.5,513.75 280.5,513.75 280.5,511.75 274.5,511.75 268.5,511.75 268.5,513.75 264.5,513.75 
				264.5,515.75 260.5,515.75 260.5,517.75 258.5,517.75 258.5,521.75 256.5,521.75 256.5,525.75 254.5,525.75 254.5,537.75 
				256.5,537.75 256.5,541.75 258.5,541.75 258.5,545.75 260.5,545.75 260.5,547.75 264.5,547.75 264.5,549.75 268.5,549.75 
				268.5,551.75 274.5,551.75 280.5,551.75 			"/>
			<rect x="170.5" y="529.75" fill="#83AB93" width="2" height="4"/>
			<rect x="172.5" y="525.75" fill="#83AB93" width="2" height="4"/>
			<rect x="174.5" y="523.75" fill="#83AB93" width="2" height="2"/>
			<rect x="176.5" y="521.75" fill="#83AB93" width="2" height="2"/>
			<rect x="178.5" y="519.75" fill="#83AB93" width="2" height="2"/>
			<rect x="180.5" y="517.75" fill="#83AB93" width="2" height="2"/>
			<rect x="182.5" y="515.75" fill="#83AB93" width="4" height="2"/>
			<rect x="186.5" y="513.75" fill="#83AB93" width="6" height="2"/>
			<rect x="192.5" y="511.75" fill="#83AB93" width="16" height="2"/>
			<rect x="208.5" y="513.75" fill="#83AB93" width="6" height="2"/>
			<rect x="214.5" y="515.75" fill="#83AB93" width="4" height="2"/>
			<rect x="218.5" y="517.75" fill="#83AB93" width="2" height="2"/>
			<rect x="220.5" y="519.75" fill="#83AB93" width="2" height="2"/>
			<rect x="222.5" y="521.75" fill="#83AB93" width="2" height="2"/>
			<rect x="218.5" y="515.75" fill="#83AB93" width="2" height="2"/>
			<rect x="220.5" y="513.75" fill="#83AB93" width="2" height="2"/>
			<rect x="222.5" y="511.75" fill="#83AB93" width="2" height="2"/>
			<rect x="224.5" y="509.75" fill="#83AB93" width="2" height="2"/>
			<rect x="226.5" y="507.75" fill="#83AB93" width="2" height="2"/>
			<rect x="228.5" y="505.75" fill="#83AB93" width="4" height="2"/>
			<rect x="232.5" y="503.75" fill="#83AB93" width="6" height="2"/>
			<rect x="238.5" y="501.75" fill="#83AB93" width="16" height="2"/>
			<rect x="254.5" y="503.75" fill="#83AB93" width="6" height="2"/>
			<rect x="260.5" y="505.75" fill="#83AB93" width="4" height="2"/>
			<rect x="264.5" y="507.75" fill="#83AB93" width="2" height="2"/>
			<rect x="266.5" y="509.75" fill="#83AB93" width="2" height="2"/>
			<rect x="268.5" y="511.75" fill="#83AB93" width="12" height="2"/>
			<rect x="264.5" y="513.75" fill="#83AB93" width="4" height="2"/>
			<rect x="260.5" y="515.75" fill="#83AB93" width="4" height="2"/>
			<rect x="280.5" y="513.75" fill="#83AB93" width="4" height="2"/>
			<rect x="284.5" y="515.75" fill="#83AB93" width="4" height="2"/>
			<rect x="288.5" y="517.75" fill="#83AB93" width="2" height="4"/>
			<rect x="290.5" y="521.75" fill="#83AB93" width="2" height="2"/>
			<polygon fill="#8FCC88" points="32.5,559.75 36.5,559.75 36.5,557.75 40.5,557.75 40.5,555.75 42.5,555.75 42.5,551.75 
				44.5,551.75 48.5,551.75 48.5,553.75 54.5,553.75 56.5,553.75 56.5,555.75 58.5,555.75 58.5,557.75 60.5,557.75 60.5,559.75 
				62.5,559.75 156.5,559.75 158.5,559.75 158.5,553.75 160.5,553.75 160.5,545.75 160.5,537.75 158.5,537.75 158.5,531.75 
				156.5,531.75 156.5,527.75 154.5,527.75 154.5,525.75 152.5,525.75 152.5,523.75 150.5,523.75 150.5,521.75 148.5,521.75 
				148.5,519.75 146.5,519.75 146.5,517.75 142.5,517.75 142.5,515.75 136.5,515.75 136.5,513.75 120.5,513.75 120.5,515.75 
				114.5,515.75 114.5,517.75 110.5,517.75 108.5,517.75 108.5,515.75 106.5,515.75 106.5,513.75 104.5,513.75 104.5,511.75 
				102.5,511.75 102.5,509.75 100.5,509.75 100.5,507.75 96.5,507.75 96.5,505.75 90.5,505.75 90.5,503.75 74.5,503.75 74.5,505.75 
				68.5,505.75 68.5,507.75 64.5,507.75 64.5,509.75 62.5,509.75 62.5,511.75 60.5,511.75 60.5,513.75 58.5,513.75 54.5,513.75 
				48.5,513.75 48.5,515.75 44.5,515.75 44.5,517.75 40.5,517.75 40.5,519.75 38.5,519.75 38.5,523.75 36.5,523.75 32.5,523.75 
				32.5,521.75 26.5,521.75 20.5,521.75 20.5,523.75 16.5,523.75 16.5,525.75 12.5,525.75 12.5,527.75 10.5,527.75 10.5,525.75 
				6.5,525.75 6.5,523.75 0.5,523.75 0.5,521.75 -15.5,521.75 -15.5,523.75 -21.5,523.75 -21.5,525.75 -23.5,525.75 -23.5,523.75 
				-25.5,523.75 -25.5,521.75 -27.5,521.75 -27.5,519.75 -29.5,519.75 -29.5,517.75 -33.5,517.75 -33.5,515.75 -39.5,515.75 
				-39.5,513.75 -47.5,513.75 -47.5,559.75 			"/>
			<polygon fill="#8FCC88" points="296.5,513.75 296.5,515.75 290.5,515.75 290.5,517.75 286.5,517.75 286.5,519.75 284.5,519.75 
				284.5,521.75 282.5,521.75 282.5,523.75 280.5,523.75 280.5,525.75 278.5,525.75 278.5,527.75 276.5,527.75 276.5,525.75 
				272.5,525.75 272.5,523.75 266.5,523.75 266.5,521.75 250.5,521.75 250.5,523.75 244.5,523.75 244.5,525.75 240.5,525.75 
				240.5,527.75 238.5,527.75 238.5,529.75 236.5,529.75 236.5,531.75 234.5,531.75 234.5,529.75 230.5,529.75 230.5,527.75 
				226.5,527.75 226.5,525.75 220.5,525.75 214.5,525.75 214.5,527.75 210.5,527.75 210.5,529.75 206.5,529.75 206.5,531.75 
				204.5,531.75 204.5,535.75 202.5,535.75 202.5,539.75 200.5,539.75 200.5,551.75 202.5,551.75 202.5,555.75 204.5,555.75 
				204.5,559.75 206.5,559.75 304.5,559.75 304.5,513.75 			"/>
		</g>
		<g id="Layer_3">
			<rect x="296.5" y="513.75" fill="#83AB93" width="8" height="2"/>
			<rect x="290.5" y="515.75" fill="#83AB93" width="6" height="2"/>
			<rect x="286.5" y="517.75" fill="#83AB93" width="4" height="2"/>
			<rect x="284.5" y="519.75" fill="#83AB93" width="2" height="2"/>
			<rect x="282.5" y="521.75" fill="#83AB93" width="2" height="2"/>
			<rect x="280.5" y="523.75" fill="#83AB93" width="2" height="2"/>
			<rect x="278.5" y="525.75" fill="#83AB93" width="2" height="2"/>
			<rect x="276.5" y="527.75" fill="#83AB93" width="2" height="4"/>
			<rect x="274.5" y="531.75" fill="#8FCC88" width="2" height="6"/>
			<rect x="274.5" y="531.75" fill="#83AB93" width="2" height="6"/>
			<rect x="272.5" y="525.75" fill="#83AB93" width="4" height="2"/>
			<rect x="266.5" y="523.75" fill="#83AB93" width="6" height="2"/>
			<rect x="250.5" y="521.75" fill="#83AB93" width="16" height="2"/>
			<rect x="244.5" y="523.75" fill="#83AB93" width="6" height="2"/>
			<rect x="240.5" y="525.75" fill="#83AB93" width="4" height="2"/>
			<rect x="238.5" y="527.75" fill="#83AB93" width="2" height="2"/>
			<rect x="236.5" y="529.75" fill="#83AB93" width="2" height="2"/>
			<rect x="234.5" y="531.75" fill="#83AB93" width="2" height="4"/>
			<rect x="230.5" y="529.75" fill="#83AB93" width="4" height="2"/>
			<rect x="226.5" y="527.75" fill="#83AB93" width="4" height="2"/>
			<rect x="214.5" y="525.75" fill="#83AB93" width="12" height="2"/>
			<rect x="210.5" y="527.75" fill="#83AB93" width="4" height="2"/>
			<rect x="236.5" y="535.75" fill="#83AB93" width="2" height="4"/>
			<rect x="156.5" y="531.75" fill="#83AB93" width="2" height="4"/>
			<rect x="154.5" y="527.75" fill="#83AB93" width="2" height="4"/>
			<rect x="152.5" y="525.75" fill="#83AB93" width="2" height="2"/>
			<rect x="150.5" y="523.75" fill="#83AB93" width="2" height="2"/>
			<rect x="148.5" y="521.75" fill="#83AB93" width="2" height="2"/>
			<rect x="146.5" y="519.75" fill="#83AB93" width="2" height="2"/>
			<rect x="142.5" y="517.75" fill="#83AB93" width="4" height="2"/>
			<rect x="136.5" y="515.75" fill="#83AB93" width="6" height="2"/>
			<rect x="120.5" y="513.75" fill="#83AB93" width="16" height="2"/>
			<rect x="114.5" y="515.75" fill="#83AB93" width="6" height="2"/>
			<rect x="110.5" y="517.75" fill="#83AB93" width="4" height="2"/>
			<rect x="108.5" y="519.75" fill="#83AB93" width="2" height="2"/>
			<rect x="106.5" y="521.75" fill="#83AB93" width="2" height="2"/>
			<rect x="104.5" y="523.75" fill="#83AB93" width="2" height="2"/>
			<rect x="108.5" y="517.75" fill="#83AB93" width="2" height="2"/>
			<rect x="106.5" y="515.75" fill="#83AB93" width="2" height="2"/>
			<rect x="104.5" y="513.75" fill="#83AB93" width="2" height="2"/>
			<rect x="102.5" y="511.75" fill="#83AB93" width="2" height="2"/>
			<rect x="100.5" y="509.75" fill="#83AB93" width="2" height="2"/>
			<rect x="96.5" y="507.75" fill="#83AB93" width="4" height="2"/>
			<rect x="90.5" y="505.75" fill="#83AB93" width="6" height="2"/>
			<rect x="74.5" y="503.75" fill="#83AB93" width="16" height="2"/>
			<rect x="68.5" y="505.75" fill="#83AB93" width="6" height="2"/>
			<rect x="64.5" y="507.75" fill="#83AB93" width="4" height="2"/>
			<rect x="62.5" y="509.75" fill="#83AB93" width="2" height="2"/>
			<rect x="60.5" y="511.75" fill="#83AB93" width="2" height="2"/>
			<rect x="48.5" y="513.75" fill="#83AB93" width="12" height="2"/>
			<rect x="60.5" y="515.75" fill="#83AB93" width="4" height="2"/>
			<rect x="64.5" y="517.75" fill="#83AB93" width="4" height="2"/>
			<rect x="44.5" y="515.75" fill="#83AB93" width="4" height="2"/>
			<rect x="40.5" y="517.75" fill="#83AB93" width="4" height="2"/>
			<rect x="38.5" y="519.75" fill="#83AB93" width="2" height="4"/>
			<rect x="36.5" y="523.75" fill="#83AB93" width="2" height="2"/>
			<rect x="32.5" y="523.75" fill="#83AB93" width="4" height="2"/>
			<rect x="20.5" y="521.75" fill="#83AB93" width="12" height="2"/>
			<rect x="16.5" y="523.75" fill="#83AB93" width="4" height="2"/>
			<rect x="38.5" y="525.75" fill="#83AB93" width="2" height="2"/>
			<rect x="14.5" y="525.75" fill="#83AB93" width="2" height="2"/>
			<rect x="12.5" y="525.75" fill="#83AB93" width="2" height="2"/>
			<rect x="40.5" y="527.75" fill="#83AB93" width="2" height="4"/>
			<rect x="6.5" y="525.75" fill="#83AB93" width="4" height="2"/>
			<rect x="10.5" y="527.75" fill="#83AB93" width="2" height="2"/>
			<rect x="0.5" y="523.75" fill="#83AB93" width="6" height="2"/>
			<rect x="8.5" y="529.75" fill="#83AB93" width="2" height="4"/>
			<rect x="-15.5" y="521.75" fill="#83AB93" width="16" height="2"/>
			<rect x="-21.5" y="523.75" fill="#83AB93" width="6" height="2"/>
			<rect x="-25.25" y="525.75" fill="#83AB93" width="3.5" height="2"/>
			<rect x="-25.5" y="523.75" fill="#83AB93" width="2" height="2"/>
			<rect x="-27.5" y="521.75" fill="#83AB93" width="2" height="2"/>
			<rect x="-29.5" y="519.75" fill="#83AB93" width="2" height="2"/>
			<rect x="-33.5" y="517.75" fill="#83AB93" width="4" height="2"/>
			<rect x="-39.5" y="515.75" fill="#83AB93" width="6" height="2"/>
			<rect x="-47.5" y="513.75" fill="#83AB93" width="8" height="2"/>
			<rect x="-27.5" y="527.75" fill="#83AB93" width="2" height="2"/>
			<rect x="-29.5" y="529.75" fill="#83AB93" width="2" height="2"/>
			<rect x="-31.5" y="531.75" fill="#83AB93" width="2" height="2"/>
			<polygon fill="#8FCC88" points="296.5,527.75 296.5,529.75 290.5,529.75 290.5,531.75 286.5,531.75 286.5,533.75 284.5,533.75 
				284.5,535.75 282.5,535.75 282.5,537.75 280.5,537.75 280.5,539.75 278.5,539.75 278.5,537.75 272.5,537.75 272.5,535.75 
				256.5,535.75 256.5,537.75 250.5,537.75 250.5,539.75 246.5,539.75 246.5,541.75 244.5,541.75 244.5,539.75 240.5,539.75 
				240.5,537.75 236.5,537.75 236.5,535.75 230.5,535.75 224.5,535.75 224.5,537.75 220.5,537.75 218.5,537.75 218.5,533.75 
				216.5,533.75 216.5,531.75 212.5,531.75 212.5,529.75 208.5,529.75 208.5,527.75 202.5,527.75 198.5,527.75 196.5,527.75 
				196.5,525.75 194.5,525.75 194.5,523.75 192.5,523.75 192.5,521.75 188.5,521.75 188.5,519.75 182.5,519.75 182.5,517.75 
				166.5,517.75 166.5,519.75 160.5,519.75 160.5,521.75 156.5,521.75 156.5,523.75 154.5,523.75 154.5,525.75 152.5,525.75 
				152.5,527.75 150.5,527.75 150.5,529.75 148.5,529.75 148.5,531.75 146.5,531.75 142.5,531.75 142.5,529.75 136.5,529.75 
				136.5,527.75 120.5,527.75 120.5,529.75 114.5,529.75 114.5,531.75 110.5,531.75 110.5,533.75 108.5,533.75 108.5,535.75 
				106.5,535.75 106.5,537.75 104.5,537.75 104.5,539.75 102.5,539.75 102.5,541.75 100.5,541.75 100.5,545.75 98.5,545.75 
				98.5,543.75 96.5,543.75 96.5,541.75 94.5,541.75 94.5,539.75 92.5,539.75 92.5,537.75 90.5,537.75 90.5,535.75 86.5,535.75 
				86.5,533.75 80.5,533.75 80.5,531.75 64.5,531.75 64.5,533.75 58.5,533.75 58.5,535.75 54.5,535.75 54.5,537.75 52.5,537.75 
				52.5,539.75 50.5,539.75 50.5,541.75 48.5,541.75 48.5,543.75 46.5,543.75 46.5,541.75 42.5,541.75 42.5,539.75 36.5,539.75 
				30.5,539.75 30.5,541.75 26.5,541.75 26.5,543.75 22.5,543.75 22.5,545.75 20.5,545.75 20.5,543.75 18.5,543.75 18.5,541.75 
				16.5,541.75 16.5,539.75 12.5,539.75 12.5,537.75 6.5,537.75 6.5,535.75 -9.5,535.75 -9.5,537.75 -15.5,537.75 -15.5,539.75 
				-19.5,539.75 -19.5,541.75 -21.5,541.75 -21.5,539.75 -23.5,539.75 -23.5,537.75 -25.5,537.75 -25.5,535.75 -27.5,535.75 
				-27.5,533.75 -29.5,533.75 -29.5,531.75 -33.5,531.75 -33.5,529.75 -39.5,529.75 -39.5,527.75 -47.5,527.75 -47.5,559.75 
				304.5,559.75 304.5,527.75 			"/>
		</g>
		<g id="Layer_2">
			<g>
				<rect x="-47.5" y="527.75" fill="#83AB93" width="8" height="2"/>
				<rect x="-39.5" y="529.75" fill="#83AB93" width="6" height="2"/>
				<rect x="-33.5" y="531.75" fill="#83AB93" width="4" height="2"/>
				<rect x="-29.5" y="533.75" fill="#83AB93" width="2" height="2"/>
				<rect x="-27.5" y="535.75" fill="#83AB93" width="2" height="2"/>
				<rect x="-25.5" y="537.75" fill="#83AB93" width="2" height="2"/>
				<rect x="-23.5" y="539.75" fill="#83AB93" width="2" height="2"/>
				<rect x="-21.5" y="541.75" fill="#83AB93" width="2" height="4"/>
				<rect x="-19.5" y="545.75" fill="#8FCC88" width="2" height="6"/>
				<rect x="-19.5" y="545.75" fill="#83AB93" width="2" height="6"/>
				<rect x="-19.5" y="539.75" fill="#83AB93" width="4" height="2"/>
				<rect x="-15.5" y="537.75" fill="#83AB93" width="6" height="2"/>
				<rect x="-9.5" y="535.75" fill="#83AB93" width="16" height="2"/>
				<rect x="6.5" y="537.75" fill="#83AB93" width="6" height="2"/>
				<rect x="12.5" y="539.75" fill="#83AB93" width="4" height="2"/>
				<rect x="16.5" y="541.75" fill="#83AB93" width="2" height="2"/>
				<rect x="18.5" y="543.75" fill="#83AB93" width="2" height="2"/>
				<rect x="20.5" y="545.75" fill="#83AB93" width="2" height="4"/>
				<rect x="22.5" y="543.75" fill="#83AB93" width="4" height="2"/>
				<rect x="26.5" y="541.75" fill="#83AB93" width="4" height="2"/>
				<rect x="30.5" y="539.75" fill="#83AB93" width="12" height="2"/>
				<rect x="42.5" y="541.75" fill="#83AB93" width="4" height="2"/>
				<rect x="18.5" y="549.75" fill="#83AB93" width="2" height="4"/>
				<rect x="46.5" y="543.75" fill="#83AB93" width="2" height="2"/>
				<rect x="48.5" y="541.75" fill="#83AB93" width="2" height="2"/>
				<rect x="50.5" y="539.75" fill="#83AB93" width="2" height="2"/>
				<rect x="52.5" y="537.75" fill="#83AB93" width="2" height="2"/>
				<rect x="54.5" y="535.75" fill="#83AB93" width="4" height="2"/>
				<rect x="58.5" y="533.75" fill="#83AB93" width="6" height="2"/>
				<rect x="64.5" y="531.75" fill="#83AB93" width="16" height="2"/>
				<rect x="80.5" y="533.75" fill="#83AB93" width="6" height="2"/>
				<rect x="86.5" y="535.75" fill="#83AB93" width="4" height="2"/>
				<rect x="90.5" y="537.75" fill="#83AB93" width="2" height="2"/>
				<rect x="92.5" y="539.75" fill="#83AB93" width="2" height="2"/>
				<rect x="94.5" y="541.75" fill="#83AB93" width="2" height="2"/>
				<rect x="96.5" y="543.75" fill="#83AB93" width="2" height="2"/>
				<rect x="98.5" y="545.75" fill="#83AB93" width="2" height="4"/>
				<rect x="44.5" y="545.75" fill="#83AB93" width="2" height="4"/>
				<rect x="100.5" y="541.75" fill="#83AB93" width="2" height="4"/>
				<rect x="102.5" y="539.75" fill="#83AB93" width="2" height="2"/>
				<rect x="104.5" y="537.75" fill="#83AB93" width="2" height="2"/>
				<rect x="106.5" y="535.75" fill="#83AB93" width="2" height="2"/>
				<rect x="108.5" y="533.75" fill="#83AB93" width="2" height="2"/>
				<rect x="110.5" y="531.75" fill="#83AB93" width="4" height="2"/>
				<rect x="114.5" y="529.75" fill="#83AB93" width="6" height="2"/>
				<rect x="120.5" y="527.75" fill="#83AB93" width="16" height="2"/>
				<rect x="136.5" y="529.75" fill="#83AB93" width="6" height="2"/>
				<rect x="142.5" y="531.75" fill="#83AB93" width="4" height="2"/>
				<rect x="146.5" y="533.75" fill="#83AB93" width="2" height="2"/>
				<rect x="148.5" y="535.75" fill="#83AB93" width="2" height="2"/>
				<rect x="150.5" y="537.75" fill="#83AB93" width="2" height="2"/>
				<rect x="146.5" y="531.75" fill="#83AB93" width="2" height="2"/>
				<rect x="148.5" y="529.75" fill="#83AB93" width="2" height="2"/>
				<rect x="150.5" y="527.75" fill="#83AB93" width="2" height="2"/>
				<rect x="152.5" y="525.75" fill="#83AB93" width="2" height="2"/>
				<rect x="154.5" y="523.75" fill="#83AB93" width="2" height="2"/>
				<rect x="156.5" y="521.75" fill="#83AB93" width="4" height="2"/>
				<rect x="160.5" y="519.75" fill="#83AB93" width="6" height="2"/>
				<rect x="166.5" y="517.75" fill="#83AB93" width="16" height="2"/>
				<rect x="182.5" y="519.75" fill="#83AB93" width="6" height="2"/>
				<rect x="188.5" y="521.75" fill="#83AB93" width="4" height="2"/>
				<rect x="192.5" y="523.75" fill="#83AB93" width="2" height="2"/>
				<rect x="194.5" y="525.75" fill="#83AB93" width="2" height="2"/>
				<rect x="196.5" y="527.75" fill="#83AB93" width="12" height="2"/>
				<rect x="192.5" y="529.75" fill="#83AB93" width="4" height="2"/>
				<rect x="188.5" y="531.75" fill="#83AB93" width="4" height="2"/>
				<rect x="208.5" y="529.75" fill="#83AB93" width="4" height="2"/>
				<rect x="212.5" y="531.75" fill="#83AB93" width="4" height="2"/>
				<rect x="216.5" y="533.75" fill="#83AB93" width="2" height="4"/>
				<rect x="218.5" y="537.75" fill="#83AB93" width="2" height="2"/>
				<rect x="220.5" y="537.75" fill="#83AB93" width="4" height="2"/>
				<rect x="224.5" y="535.75" fill="#83AB93" width="12" height="2"/>
				<rect x="236.5" y="537.75" fill="#83AB93" width="4" height="2"/>
				<rect x="216.5" y="539.75" fill="#83AB93" width="2" height="2"/>
				<rect x="240.5" y="539.75" fill="#83AB93" width="2" height="2"/>
				<rect x="242.5" y="539.75" fill="#83AB93" width="2" height="2"/>
				<rect x="214.5" y="541.75" fill="#83AB93" width="2" height="4"/>
				<rect x="246.5" y="539.75" fill="#83AB93" width="4" height="2"/>
				<rect x="244.5" y="541.75" fill="#83AB93" width="2" height="2"/>
				<rect x="250.5" y="537.75" fill="#83AB93" width="6" height="2"/>
				<rect x="246.5" y="543.75" fill="#83AB93" width="2" height="4"/>
				<rect x="256.5" y="535.75" fill="#83AB93" width="16" height="2"/>
				<rect x="272.5" y="537.75" fill="#83AB93" width="6" height="2"/>
				<rect x="278.75" y="539.75" fill="#83AB93" width="3.5" height="2"/>
				<rect x="280.5" y="537.75" fill="#83AB93" width="2" height="2"/>
				<rect x="282.5" y="535.75" fill="#83AB93" width="2" height="2"/>
				<rect x="284.5" y="533.75" fill="#83AB93" width="2" height="2"/>
				<rect x="286.5" y="531.75" fill="#83AB93" width="4" height="2"/>
				<rect x="290.5" y="529.75" fill="#83AB93" width="6" height="2"/>
				<rect x="296.5" y="527.75" fill="#83AB93" width="8" height="2"/>
				<rect x="282.5" y="541.75" fill="#83AB93" width="2" height="2"/>
				<rect x="284.5" y="543.75" fill="#83AB93" width="2" height="2"/>
				<rect x="286.5" y="545.75" fill="#83AB93" width="2" height="2"/>
			</g>
		</g>
	</g>
</g>
</svg>
