<?xml version="1.0" encoding="utf-8"?>
<!-- Generator: Adobe Illustrator 17.0.0, SVG Export Plug-In . SVG Version: 6.00 Build 0)  -->
<!DOCTYPE svg PUBLIC "-//W3C//DTD SVG 1.1//EN" "http://www.w3.org/Graphics/SVG/1.1/DTD/svg11.dtd">
<svg version="1.1" id="Layer_1" xmlns="http://www.w3.org/2000/svg" xmlns:xlink="http://www.w3.org/1999/xlink" x="0px" y="0px"
	 width="366px" height="71px" viewBox="0 0 366 71" enable-background="new 0 0 366 71" xml:space="preserve">
<path d="M364,7h-35h-2h-15h-2v2v33h-1V9V7h-2h-15h-2h-35V4V2h-2h-15h-2v2v18h-1V4V2h-2h-15h-2v2v55v2h2h15h2v-2V41h1v18v2h2h15h2h35
	h2h35h2h15h2v-2V26h1v8v2h2h15h2v-2V9V7H364z M273,26v16h-1V26H273z"/>
<path d="M204,12h-15h-2v2v18h-1V14v-2h-2h-15h-2h-35h-2H95V4V2h-2H63h-2v2v15v2h2h13v1H58V4V2h-2H41h-2H4H2v2v55v2h2h15h2v-2V41h18
	v18v2h2h15h2h35v8v2h2h15h2v-2v-8h18v8v2h2h15h2v-2v-8h18v8v2h2h35h2v-2V14v-2H204z M39,22H21v-1h18V22z M113,31v11h-1V31H113z
	 M76,41v1h-1v-1H76z M169,51h18v1h-18V51z M150,31v11h-1V31H150z"/>
<g>
	<polygon fill="#FDCA49" points="1,58 1,1 38,1 38,18 18,18 18,21 38,21 38,38 18,38 18,58 	"/>
	<path d="M37,2v15H17v5h20v15H17v20H2V2H37 M39,0h-2H2H0v2v55v2h2h15h2v-2V39h18h2v-2V22v-2h-2H19v-1h18h2v-2V2V0L39,0z"/>
</g>
<g>
	<rect x="38" y="1" fill="#FDCA49" width="17" height="57"/>
	<path d="M54,2v55H39V2H54 M56,0h-2H39h-2v2v55v2h2h15h2v-2V2V0L56,0z"/>
</g>
<g>
	<path fill="#FDCA49" d="M55,58V21h20v-3H60V1h32v57H55z M75,41v-3h-3v3H75z"/>
	<path d="M91,2v55H56V22h20v-5H61V2H91 M71,42h5v-5h-5V42 M93,0h-2H61h-2v2v15v2h2h13v1H56h-2v2v35v2h2h35h2v-2V2V0L93,0z M73,39h1
		v1h-1V39L73,39z"/>
</g>
<g>
	<path fill="#FDCA49" d="M92,68V11h37v47h-20v10H92z M112,41V28h-3v13H112z"/>
	<path d="M128,12v45h-20v10H93V12H128 M108,42h5V27h-5V42 M130,10h-2H93h-2v2v55v2h2h15h2v-2v-8h18h2v-2V12V10L130,10z M110,29h1v11
		h-1V29L110,29z"/>
</g>
<g>
	<path fill="#FDCA49" d="M129,68V11h37v47h-20v10H129z M149,41V28h-3v13H149z"/>
	<path d="M165,12v45h-20v10h-15V12H165 M145,42h5V27h-5V42 M167,10h-2h-35h-2v2v55v2h2h15h2v-2v-8h18h2v-2V12V10L167,10z M147,29h1
		v11h-1V29L147,29z"/>
</g>
<g>
	<polygon fill="#FDCA49" points="166,68 166,51 186,51 186,48 166,48 166,11 183,11 183,31 186,31 186,11 203,11 203,68 	"/>
	<path d="M202,12v55h-35V52h20v-5h-20V12h15v20h5V12H202 M204,10h-2h-15h-2v2v18h-1V12v-2h-2h-15h-2v2v35v2h2h18v1h-18h-2v2v15v2h2
		h35h2v-2V12V10L204,10z"/>
</g>
<g>
	<polygon fill="#FDCA49" points="235,58 235,38 232,38 232,58 215,58 215,1 232,1 232,21 235,21 235,1 252,1 252,58 	"/>
	<path d="M251,2v55h-15V37h-5v20h-15V2h15v20h5V2H251 M253,0h-2h-15h-2v2v18h-1V2V0h-2h-15h-2v2v55v2h2h15h2v-2V39h1v18v2h2h15h2v-2
		V2V0L253,0z"/>
</g>
<g>
	<path fill="#FDCA49" d="M252,58V6h37v52H252z M272,41V23h-3v18H272z"/>
	<path d="M288,7v50h-35V7H288 M268,42h5V22h-5V42 M290,5h-2h-35h-2v2v50v2h2h35h2v-2V7V5L290,5z M270,24h1v16h-1V24L270,24z"/>
</g>
<g>
	<polygon fill="#FDCA49" points="289,58 289,6 306,6 306,41 309,41 309,6 326,6 326,58 	"/>
	<path d="M325,7v50h-35V7h15v35h5V7H325 M327,5h-2h-15h-2v2v33h-1V7V5h-2h-15h-2v2v50v2h2h35h2v-2V7V5L327,5z"/>
</g>
<g>
	<polygon fill="#FDCA49" points="326,58 326,6 363,6 363,33 346,33 346,23 343,23 343,58 	"/>
	<path d="M362,7v25h-15V22h-5v35h-15V7H362 M364,5h-2h-35h-2v2v50v2h2h15h2v-2V24h1v8v2h2h15h2v-2V7V5L364,5z"/>
</g>
<g>
	<polygon fill="#FFE7B9" points="17,22 17,17 37,17 37,2 2,2 2,29 37,29 37,22 	"/>
</g>
<g>
	<rect x="39" y="2" fill="#FFE7B9" width="15" height="27"/>
</g>
<g>
	<polygon fill="#FFE7B9" points="61,2 61,17 76,17 76,22 56,22 56,29 91,29 91,2 	"/>
</g>
<g>
	<polygon fill="#FFE7B9" points="93,12 93,29 108,29 108,27 113,27 113,29 128,29 128,12 	"/>
</g>
<g>
	<polygon fill="#FFE7B9" points="130,12 130,29 145,29 145,27 150,27 150,29 165,29 165,12 	"/>
</g>
<g>
	<rect x="187" y="12" fill="#FFE7B9" width="15" height="17"/>
</g>
<g>
	<rect x="167" y="12" fill="#FFE7B9" width="15" height="17"/>
</g>
<g>
	<polygon fill="#FFE7B9" points="236,2 236,22 231,22 231,2 216,2 216,29 251,29 251,2 	"/>
</g>
<g>
	<polygon fill="#FFE7B9" points="253,7 253,29 268,29 268,22 273,22 273,29 288,29 288,7 	"/>
</g>
<g>
	<rect x="310" y="7" fill="#FFE7B9" width="15" height="22"/>
</g>
<g>
	<rect x="290" y="7" fill="#FFE7B9" width="15" height="22"/>
</g>
<g>
	<polygon fill="#FFE7B9" points="362,7 327,7 327,29 342,29 342,22 347,22 347,29 362,29 	"/>
</g>
<rect x="2" y="55" fill="#F89B37" width="15" height="2"/>
<rect x="39" y="55" fill="#F89B37" width="15" height="2"/>
<rect x="56" y="55" fill="#F89B37" width="35" height="2"/>
<rect x="108" y="55" fill="#F89B37" width="20" height="2"/>
<rect x="93" y="65" fill="#F89B37" width="15" height="2"/>
<rect x="145" y="55" fill="#F89B37" width="20" height="2"/>
<rect x="130" y="65" fill="#F89B37" width="15" height="2"/>
<rect x="167" y="65" fill="#F89B37" width="35" height="2"/>
<rect x="167" y="45" fill="#F89B37" width="20" height="2"/>
<rect x="93" y="12" fill="#FFF9EE" width="35" height="2"/>
<rect x="130" y="12" fill="#FFF9EE" width="35" height="2"/>
<rect x="167" y="12" fill="#FFF9EE" width="15" height="2"/>
<rect x="187" y="12" fill="#FFF9EE" width="15" height="2"/>
<rect x="2" y="2" fill="#FFF9EE" width="35" height="2"/>
<rect x="39" y="2" fill="#FFF9EE" width="15" height="2"/>
<rect x="61" y="2" fill="#FFF9EE" width="30" height="2"/>
<rect x="216" y="2" fill="#FFF9EE" width="15" height="2"/>
<rect x="236" y="2" fill="#FFF9EE" width="15" height="2"/>
<rect x="253" y="7" fill="#FFF9EE" width="35" height="2"/>
<rect x="290" y="7" fill="#FFF9EE" width="15" height="2"/>
<rect x="310" y="7" fill="#FFF9EE" width="15" height="2"/>
<rect x="327" y="7" fill="#FFF9EE" width="35" height="2"/>
<rect x="253" y="55" fill="#F89B37" width="35" height="2"/>
<rect x="290" y="55" fill="#F89B37" width="35" height="2"/>
<rect x="216" y="55" fill="#F89B37" width="15" height="2"/>
<rect x="236" y="55" fill="#F89B37" width="15" height="2"/>
<rect x="327" y="55" fill="#F89B37" width="15" height="2"/>
</svg>
